<?xml version="1.0" encoding="UTF-8"?>
<svg xmlns="http://www.w3.org/2000/svg" xmlns:xlink="http://www.w3.org/1999/xlink" xmlns:xodm="http://www.corel.com/coreldraw/odm/2003" xml:space="preserve" width="92px" height="92px" version="1.1" style="shape-rendering:geometricPrecision; text-rendering:geometricPrecision; image-rendering:optimizeQuality; fill-rule:evenodd; clip-rule:evenodd" viewBox="0 0 1.03 1.02"> <defs> <style type="text/css"> .fil0 {fill:#EBECEC} .fil1 {fill:#EF7F1A} .fil2 {fill:#FEFEFE;fill-rule:nonzero} </style> </defs> <g id="Layer_x0020_1"> <metadata id="CorelCorpID_0Corel-Layer"></metadata> <circle class="fil0" cx="0.04" cy="0.04" r="0.04"></circle> <circle class="fil0" cx="0.28" cy="0.04" r="0.04"></circle> <circle class="fil0" cx="0.51" cy="0.04" r="0.04"></circle> <circle class="fil0" cx="0.75" cy="0.04" r="0.04"></circle> <circle class="fil0" cx="0.98" cy="0.04" r="0.04"></circle> <circle class="fil0" cx="0.04" cy="0.28" r="0.04"></circle> <circle class="fil0" cx="0.04" cy="0.51" r="0.04"></circle> <circle class="fil0" cx="0.04" cy="0.74" r="0.04"></circle> <circle class="fil0" cx="0.04" cy="0.97" r="0.04"></circle> <circle class="fil0" cx="0.28" cy="0.28" r="0.04"></circle> <circle class="fil0" cx="0.28" cy="0.51" r="0.04"></circle> <circle class="fil0" cx="0.28" cy="0.74" r="0.04"></circle> <circle class="fil0" cx="0.28" cy="0.97" r="0.04"></circle> <circle class="fil0" cx="0.51" cy="0.28" r="0.04"></circle> <circle class="fil0" cx="0.51" cy="0.51" r="0.04"></circle> <circle class="fil0" cx="0.51" cy="0.74" r="0.04"></circle> <circle class="fil0" cx="0.51" cy="0.97" r="0.04"></circle> <circle class="fil0" cx="0.75" cy="0.28" r="0.04"></circle> <circle class="fil0" cx="0.75" cy="0.51" r="0.04"></circle> <circle class="fil0" cx="0.75" cy="0.74" r="0.04"></circle> <circle class="fil0" cx="0.75" cy="0.97" r="0.04"></circle> <circle class="fil0" cx="0.98" cy="0.28" r="0.04"></circle> <circle class="fil0" cx="0.98" cy="0.51" r="0.04"></circle> <circle class="fil0" cx="0.98" cy="0.74" r="0.04"></circle> <circle class="fil0" cx="0.98" cy="0.97" r="0.04"></circle> <path class="fil1" d="M0.96 1.02l-0.38 0c-0.25,0 -0.45,-0.2 -0.45,-0.44l0 0c0,-0.25 0.2,-0.45 0.45,-0.45l0 0c0.25,0 0.45,0.2 0.45,0.45l0 0.38c0,0.03 -0.03,0.06 -0.07,0.06z"></path> <path class="fil2" d="M0.66 0.6l0.04 0.01c0.01,0.03 0.03,0.05 0.05,0.04 0.03,0 0.05,-0.02 0.05,-0.04 0,-0.03 -0.03,-0.05 -0.05,-0.05 -0.02,0 -0.03,0.01 -0.04,0.03l-0.05 -0.01c0,-0.02 -0.01,-0.04 -0.02,-0.05l0.07 -0.09c0.03,0.01 0.06,0 0.07,-0.03 0.02,-0.03 0,-0.06 -0.03,-0.08 -0.03,-0.01 -0.06,0 -0.07,0.03 -0.01,0.03 -0.01,0.05 0.01,0.07l-0.07 0.09c-0.03,-0.02 -0.06,-0.02 -0.09,0.01l-0.08 -0.06c0.01,-0.03 0,-0.06 -0.02,-0.07 -0.03,-0.01 -0.05,0 -0.06,0.03 -0.01,0.02 0,0.05 0.02,0.06 0.01,0.01 0.03,0 0.05,-0.01l0.08 0.07c-0.01,0.03 -0.01,0.06 0.02,0.09l-0.05 0.07c-0.03,-0.02 -0.07,-0.01 -0.09,0.02 -0.01,0.03 0,0.07 0.03,0.08 0.03,0.02 0.06,0.01 0.08,-0.02 0.01,-0.02 0.01,-0.05 0,-0.07l0.05 -0.07c0.02,0.01 0.04,0.01 0.05,0l0.07 0.09c-0.02,0.02 -0.02,0.06 0,0.08 0.02,0.02 0.06,0.01 0.08,-0.01 0.02,-0.02 0.01,-0.05 -0.01,-0.07 -0.01,-0.02 -0.03,-0.02 -0.05,-0.01l-0.06 -0.09c0.01,-0.01 0.01,-0.02 0.02,-0.04zm0.09 -0.01c0.01,0 0.02,0.01 0.02,0.02 0,0.01 -0.01,0.02 -0.02,0.02 -0.01,0 -0.02,-0.01 -0.02,-0.02 0,-0.01 0.01,-0.02 0.02,-0.02zm-0.02 -0.24c0.02,0 0.03,0.02 0.03,0.04 0,0.02 -0.01,0.03 -0.03,0.03 -0.02,0 -0.03,-0.01 -0.03,-0.03 0,-0.02 0.01,-0.04 0.03,-0.04zm-0.32 0.12c-0.01,0 -0.02,-0.01 -0.02,-0.02 0,-0.02 0.01,-0.03 0.02,-0.03 0.01,0 0.02,0.01 0.02,0.03 0,0.01 -0.01,0.02 -0.02,0.02zm0.05 0.33c-0.02,0 -0.04,-0.02 -0.04,-0.04 0,-0.02 0.02,-0.04 0.04,-0.04 0.02,0 0.03,0.02 0.03,0.04 0,0.02 -0.01,0.04 -0.03,0.04zm0.26 -0.05c0.01,0 0.03,0.01 0.03,0.03 0,0.01 -0.02,0.03 -0.03,0.03 -0.02,0 -0.03,-0.02 -0.03,-0.03 0,-0.02 0.01,-0.03 0.03,-0.03zm-0.13 -0.12c-0.03,0 -0.05,-0.02 -0.05,-0.05l0 0c0,-0.03 0.02,-0.05 0.05,-0.05 0.03,0 0.05,0.02 0.05,0.05 0,0.03 -0.02,0.05 -0.05,0.05z"></path> </g> </svg>
