<?xml version="1.0" encoding="UTF-8"?>
<svg xmlns="http://www.w3.org/2000/svg" xmlns:xlink="http://www.w3.org/1999/xlink" xmlns:xodm="http://www.corel.com/coreldraw/odm/2003" xml:space="preserve" width="92px" height="92px" version="1.1" style="shape-rendering:geometricPrecision; text-rendering:geometricPrecision; image-rendering:optimizeQuality; fill-rule:evenodd; clip-rule:evenodd" viewBox="0 0 1.24 1.24"> <defs> <style type="text/css"> .fil0 {fill:#074A7C} .fil1 {fill:#FEFEFE;fill-rule:nonzero} </style> </defs> <g id="Layer_x0020_1"> <metadata id="CorelCorpID_0Corel-Layer"></metadata> <circle class="fil0" cx="0.62" cy="0.62" r="0.62"></circle> <g id="_2495164194128"> <g> <g> <path class="fil1" d="M0.89 0.86l-0.55 0c0,0 -0.01,-0.01 -0.01,-0.02 0,-0.01 0.01,-0.02 0.01,-0.02l0.55 0c0.01,0 0.02,0.01 0.02,0.02 0,0.01 -0.01,0.02 -0.02,0.02z"></path> </g> </g> <g> <g> <path class="fil1" d="M0.73 0.71l-0.39 0c0,0 -0.01,-0.01 -0.01,-0.02 0,-0.01 0.01,-0.01 0.01,-0.01l0.39 0c0.01,0 0.02,0 0.02,0.01 0,0.01 -0.01,0.02 -0.02,0.02z"></path> </g> </g> <g> <g> <path class="fil1" d="M0.89 0.56l-0.55 0c0,0 -0.01,0 -0.01,-0.01 0,-0.01 0.01,-0.02 0.01,-0.02l0.55 0c0.01,0 0.02,0.01 0.02,0.02 0,0.01 -0.01,0.01 -0.02,0.01z"></path> </g> </g> <g> <g> <path class="fil1" d="M0.59 0.42l-0.25 0c0,0 -0.01,-0.01 -0.01,-0.02 0,-0.01 0.01,-0.02 0.01,-0.02l0.25 0c0.01,0 0.02,0.01 0.02,0.02 0,0.01 -0.01,0.02 -0.02,0.02z"></path> </g> </g> <g> </g> <g> </g> <g> </g> <g> </g> <g> </g> <g> </g> <g> </g> <g> </g> <g> </g> <g> </g> <g> </g> <g> </g> <g> </g> <g> </g> <g> </g> </g> </g> </svg>
