<?xml version="1.0" encoding="UTF-8"?>
<svg xmlns="http://www.w3.org/2000/svg" xmlns:xlink="http://www.w3.org/1999/xlink" xmlns:xodm="http://www.corel.com/coreldraw/odm/2003" xml:space="preserve" width="92px" height="92px" version="1.1" style="shape-rendering:geometricPrecision; text-rendering:geometricPrecision; image-rendering:optimizeQuality; fill-rule:evenodd; clip-rule:evenodd" viewBox="0 0 1.49 1.49"> <defs> <style type="text/css"> .fil0 {fill:#EBECEC} .fil1 {fill:#EF7F1A} .fil2 {fill:#FEFEFE;fill-rule:nonzero} </style> </defs> <g id="Layer_x0020_1"> <metadata id="CorelCorpID_0Corel-Layer"></metadata> <circle class="fil0" cx="0.06" cy="0.06" r="0.06"></circle> <circle class="fil0" cx="0.41" cy="0.06" r="0.06"></circle> <circle class="fil0" cx="0.75" cy="0.06" r="0.06"></circle> <circle class="fil0" cx="1.09" cy="0.06" r="0.06"></circle> <circle class="fil0" cx="1.43" cy="0.06" r="0.06"></circle> <circle class="fil0" cx="0.06" cy="0.4" r="0.06"></circle> <circle class="fil0" cx="0.06" cy="0.74" r="0.06"></circle> <circle class="fil0" cx="0.06" cy="1.08" r="0.06"></circle> <circle class="fil0" cx="0.06" cy="1.42" r="0.06"></circle> <circle class="fil0" cx="0.41" cy="0.4" r="0.06"></circle> <circle class="fil0" cx="0.41" cy="0.74" r="0.06"></circle> <circle class="fil0" cx="0.41" cy="1.08" r="0.06"></circle> <circle class="fil0" cx="0.41" cy="1.42" r="0.06"></circle> <circle class="fil0" cx="0.75" cy="0.4" r="0.06"></circle> <circle class="fil0" cx="0.75" cy="0.74" r="0.06"></circle> <circle class="fil0" cx="0.75" cy="1.08" r="0.06"></circle> <circle class="fil0" cx="0.75" cy="1.42" r="0.06"></circle> <circle class="fil0" cx="1.09" cy="0.4" r="0.06"></circle> <circle class="fil0" cx="1.09" cy="0.74" r="0.06"></circle> <circle class="fil0" cx="1.09" cy="1.08" r="0.06"></circle> <circle class="fil0" cx="1.09" cy="1.42" r="0.06"></circle> <circle class="fil0" cx="1.43" cy="0.4" r="0.06"></circle> <circle class="fil0" cx="1.43" cy="0.74" r="0.06"></circle> <circle class="fil0" cx="1.43" cy="1.08" r="0.06"></circle> <circle class="fil0" cx="1.43" cy="1.42" r="0.06"></circle> <path class="fil1" d="M1.4 1.49l-0.56 0c-0.35,0 -0.65,-0.29 -0.65,-0.65l0 0c0,-0.35 0.3,-0.64 0.65,-0.64l0.01 0c0.35,0 0.64,0.29 0.64,0.64l0 0.55c0,0.06 -0.04,0.1 -0.09,0.1z"></path> <path class="fil2" d="M1.06 0.52l-0.35 0c-0.02,0 -0.04,0.02 -0.05,0.04l-0.01 0c-0.04,0 -0.07,0.03 -0.07,0.07l0 0.46c0,0.04 0.03,0.08 0.07,0.08l0.36 0c0.03,0 0.07,-0.04 0.07,-0.08l0 -0.01c0.01,-0.01 0.03,-0.02 0.03,-0.05l0 -0.46c0,-0.03 -0.03,-0.05 -0.05,-0.05l0 0zm-0.36 0.05c0,0 0.01,-0.01 0.01,-0.01l0.35 0c0,0 0.01,0.01 0.01,0.01l0 0.46c0,0.01 -0.01,0.01 -0.01,0.01l-0.35 0c0,0 -0.01,0 -0.01,-0.01l0 -0.46zm0.31 0.55l-0.36 0c-0.01,0 -0.03,-0.01 -0.03,-0.03l0 -0.46c0,-0.01 0.02,-0.03 0.03,-0.03l0.01 0 0 0.43c0,0.03 0.03,0.05 0.05,0.05l0.33 0 0 0.01c0,0.02 -0.02,0.03 -0.03,0.03z"></path> <path class="fil2" d="M0.76 0.74c0.01,0 0.01,0 0.02,0l0.06 -0.07 0.06 0.06c0.01,0.01 0.02,0.01 0.03,0l0.05 -0.05 0 0.01c0,0 0.01,0 0.02,0 0,0 0,0 0,0 0.01,0 0.01,-0.01 0.01,-0.01l0.01 -0.05c0.01,-0.01 0,-0.02 0,-0.02 -0.01,-0.01 -0.01,-0.01 -0.02,-0.01l-0.05 0.01c-0.01,0 -0.01,0.01 -0.01,0.02 -0.01,0 0,0.01 0,0.02l0.01 0 -0.04 0.03 -0.05 -0.05c-0.01,-0.01 -0.02,-0.01 -0.03,0l-0.08 0.08c-0.01,0.01 -0.01,0.02 0,0.03 0,0 0.01,0 0.01,0l0 0z"></path> <path class="fil2" d="M0.76 0.82l0.25 0c0.01,0 0.02,-0.01 0.02,-0.02 0,-0.01 -0.01,-0.02 -0.02,-0.02l-0.25 0c-0.01,0 -0.02,0.01 -0.02,0.02 0,0.01 0.01,0.02 0.02,0.02l0 0z"></path> <path class="fil2" d="M1.01 0.88l-0.24 0c-0.01,0 -0.02,0.01 -0.02,0.02 0,0.02 0.01,0.02 0.02,0.02l0.24 0c0.01,0 0.02,0 0.02,-0.02 0,-0.01 -0.01,-0.02 -0.02,-0.02z"></path> <path class="fil2" d="M0.89 0.96l-0.12 0c-0.01,0 -0.02,0.01 -0.02,0.02 0,0.02 0.01,0.02 0.02,0.02l0.12 0c0.02,0 0.02,0 0.02,-0.02 0,-0.01 0,-0.02 -0.02,-0.02l0 0z"></path> </g> </svg>
