<?xml version="1.0" encoding="UTF-8"?>
<svg xmlns="http://www.w3.org/2000/svg" xmlns:xlink="http://www.w3.org/1999/xlink" xmlns:xodm="http://www.corel.com/coreldraw/odm/2003" xml:space="preserve" width="92px" height="92px" version="1.1" style="shape-rendering:geometricPrecision; text-rendering:geometricPrecision; image-rendering:optimizeQuality; fill-rule:evenodd; clip-rule:evenodd" viewBox="0 0 1.11 1.11"> <defs> <style type="text/css"> .fil0 {fill:#EBECEC} .fil1 {fill:#EF7F1A} .fil2 {fill:#FEFEFE;fill-rule:nonzero} </style> </defs> <g id="Layer_x0020_1"> <metadata id="CorelCorpID_0Corel-Layer"></metadata> <circle class="fil0" cx="0.05" cy="0.05" r="0.05"></circle> <circle class="fil0" cx="0.3" cy="0.05" r="0.05"></circle> <circle class="fil0" cx="0.55" cy="0.05" r="0.05"></circle> <circle class="fil0" cx="0.81" cy="0.05" r="0.05"></circle> <circle class="fil0" cx="1.06" cy="0.05" r="0.05"></circle> <circle class="fil0" cx="0.05" cy="0.3" r="0.05"></circle> <circle class="fil0" cx="0.05" cy="0.55" r="0.05"></circle> <circle class="fil0" cx="0.05" cy="0.8" r="0.05"></circle> <circle class="fil0" cx="0.05" cy="1.05" r="0.05"></circle> <circle class="fil0" cx="0.3" cy="0.3" r="0.05"></circle> <circle class="fil0" cx="0.3" cy="0.55" r="0.05"></circle> <circle class="fil0" cx="0.3" cy="0.8" r="0.05"></circle> <circle class="fil0" cx="0.3" cy="1.05" r="0.05"></circle> <circle class="fil0" cx="0.55" cy="0.3" r="0.05"></circle> <circle class="fil0" cx="0.55" cy="0.55" r="0.05"></circle> <circle class="fil0" cx="0.55" cy="0.8" r="0.05"></circle> <circle class="fil0" cx="0.55" cy="1.05" r="0.05"></circle> <circle class="fil0" cx="0.81" cy="0.3" r="0.05"></circle> <circle class="fil0" cx="0.81" cy="0.55" r="0.05"></circle> <circle class="fil0" cx="0.81" cy="0.8" r="0.05"></circle> <circle class="fil0" cx="0.81" cy="1.05" r="0.05"></circle> <circle class="fil0" cx="1.06" cy="0.3" r="0.05"></circle> <circle class="fil0" cx="1.06" cy="0.55" r="0.05"></circle> <circle class="fil0" cx="1.06" cy="0.8" r="0.05"></circle> <circle class="fil0" cx="1.06" cy="1.05" r="0.05"></circle> <path class="fil1" d="M1.04 1.11l-0.41 0c-0.27,0 -0.49,-0.22 -0.49,-0.48l0 0c0,-0.27 0.22,-0.49 0.49,-0.49l0 0c0.26,0 0.48,0.22 0.48,0.49l0 0.4c0,0.05 -0.03,0.08 -0.07,0.08z"></path> <path class="fil2" d="M0.67 0.48c-0.02,0 -0.03,0 -0.04,0 -0.09,0 -0.15,0.06 -0.15,0.15 0,0.08 0.06,0.15 0.15,0.15 0.08,0 0.15,-0.07 0.15,-0.15 0,-0.02 0,-0.03 -0.01,-0.04 0,-0.01 0.01,-0.02 0.01,-0.02 0.01,-0.01 0.02,0 0.03,0.01 0,0.01 0,0.03 0,0.05 0,0.1 -0.08,0.18 -0.18,0.18 -0.1,0 -0.19,-0.08 -0.19,-0.18 0,-0.1 0.09,-0.19 0.19,-0.19 0.01,0 0.03,0 0.05,0.01 0,0 0.01,0.01 0.01,0.02 0,0 0,0 0,0 0,0.01 -0.01,0.01 -0.02,0.01zm0.19 0.06c-0.01,0 -0.01,0.01 -0.01,0.02 0.01,0.02 0.01,0.04 0.01,0.07 0,0.13 -0.1,0.23 -0.23,0.23 -0.13,0 -0.24,-0.1 -0.24,-0.23 0,-0.13 0.11,-0.24 0.24,-0.24 0.02,0 0.04,0.01 0.06,0.01 0.01,0 0.02,0 0.02,-0.01 0.01,0 0.01,0 0.01,0 0,-0.01 -0.01,-0.02 -0.02,-0.02 -0.02,-0.01 -0.05,-0.01 -0.07,-0.01 -0.07,0 -0.14,0.03 -0.19,0.08 -0.05,0.05 -0.08,0.12 -0.08,0.19 0,0.07 0.03,0.14 0.08,0.19 0.05,0.05 0.12,0.07 0.19,0.07 0.07,0 0.14,-0.02 0.19,-0.07 0.05,-0.05 0.08,-0.12 0.08,-0.19 0,-0.03 -0.01,-0.05 -0.02,-0.08 0,-0.01 -0.01,-0.01 -0.02,-0.01l0 0zm-0.23 0.02c0,0 0,0 0,0 0.01,0 0.02,-0.01 0.02,-0.01 0,-0.01 0,-0.02 -0.01,-0.02 -0.01,0 -0.01,0 -0.01,0 -0.06,0 -0.1,0.04 -0.1,0.1 0,0.05 0.04,0.1 0.1,0.1 0.05,0 0.1,-0.05 0.1,-0.1 0,-0.01 -0.01,-0.02 -0.02,-0.02 -0.01,0 -0.02,0.01 -0.02,0.02 0,0.03 -0.03,0.06 -0.06,0.06 -0.04,0 -0.07,-0.03 -0.07,-0.06 0,-0.04 0.03,-0.07 0.07,-0.07l0 0zm0.08 -0.04l0.01 -0.09c0,0 0,0 0.01,-0.01l0.06 -0.06c0,0 0.01,0 0.01,0 0.01,0 0.01,0.01 0.01,0.01l0.01 0.07 0.06 0c0.01,0 0.01,0 0.01,0.01 0.01,0.01 0,0.01 0,0.02l-0.06 0.06c0,0 -0.01,0 -0.01,0l-0.08 0.01 -0.1 0.1c0,0 -0.01,0 -0.01,0 -0.01,0 -0.01,0 -0.01,0 -0.01,-0.01 -0.01,-0.02 0,-0.03l0.09 -0.09zm0.04 -0.01l0.06 -0.01 0.03 -0.03 -0.04 0c-0.01,0 -0.01,-0.01 -0.01,-0.02l-0.01 -0.04 -0.03 0.03 0 0.07z"></path> </g> </svg>
