<?xml version="1.0" encoding="UTF-8"?>
<svg xmlns="http://www.w3.org/2000/svg" xmlns:xlink="http://www.w3.org/1999/xlink" xmlns:xodm="http://www.corel.com/coreldraw/odm/2003" xml:space="preserve" width="92px" height="92px" version="1.1" style="shape-rendering:geometricPrecision; text-rendering:geometricPrecision; image-rendering:optimizeQuality; fill-rule:evenodd; clip-rule:evenodd" viewBox="0 0 1.46 1.46"> <defs> <style type="text/css"> .fil0 {fill:#074A7C;fill-rule:nonzero} .fil1 {fill:white;fill-rule:nonzero} </style> </defs> <g id="Layer_x0020_1"> <metadata id="CorelCorpID_0Corel-Layer"></metadata> <circle class="fil0" cx="0.73" cy="0.73" r="0.73"></circle> <g id="_2495164172432"> <path class="fil1" d="M0.31 0.87c0,0.16 0.12,0.29 0.28,0.29l0.28 0c0.15,0 0.27,-0.12 0.28,-0.26 0.01,-0.01 0,-0.02 -0.01,-0.02 0,0 -0.01,0.01 -0.01,0.01 -0.01,0.14 -0.12,0.24 -0.26,0.24l-0.28 0c-0.14,0 -0.26,-0.12 -0.26,-0.26l0 -0.28c0,-0.14 0.12,-0.26 0.26,-0.26l0.28 0c0.14,0 0.26,0.12 0.26,0.26l0 0.18c0,0 0.01,0.01 0.01,0.01 0.01,0 0.02,-0.01 0.02,-0.01l0 -0.18c0,-0.16 -0.13,-0.28 -0.29,-0.28l-0.28 0c-0.16,0 -0.28,0.12 -0.28,0.28l0 0.28z"></path> <path class="fil1" d="M0.89 0.8l0.08 -0.06c0.02,-0.01 0.03,-0.04 0.02,-0.06 -0.01,-0.02 -0.03,-0.04 -0.05,-0.04l-0.1 0c-0.01,0 -0.02,-0.01 -0.03,-0.02l-0.03 -0.09c0,-0.02 -0.02,-0.04 -0.05,-0.04 -0.02,0 -0.04,0.02 -0.05,0.04l-0.03 0.09c0,0.01 -0.02,0.02 -0.03,0.02l-0.09 0c-0.03,0 -0.05,0.02 -0.06,0.04 0,0.02 0,0.05 0.02,0.06l0.08 0.06c0.01,0 0.01,0.02 0.01,0.03l-0.03 0.09c-0.01,0.02 0,0.05 0.02,0.06 0.01,0.01 0.02,0.01 0.04,0.01 0.01,0 0.02,0 0.03,-0.01l0.07 -0.05c0.01,-0.01 0.03,-0.01 0.04,0l0.07 0.05c0.02,0.02 0.05,0.02 0.07,0 0.02,-0.01 0.03,-0.04 0.02,-0.06l-0.03 -0.09c0,-0.01 0,-0.03 0.01,-0.03zm-0.03 0.04l0.03 0.09c0,0.01 -0.01,0.02 -0.01,0.03 -0.01,0.01 -0.03,0.01 -0.04,0l-0.08 -0.05c-0.02,-0.02 -0.04,-0.02 -0.06,0l-0.08 0.05c-0.01,0.01 -0.02,0.01 -0.03,0 -0.01,-0.01 -0.02,-0.02 -0.01,-0.03l0.02 -0.09c0.01,-0.03 0,-0.05 -0.02,-0.06l-0.07 -0.06c-0.01,-0.01 -0.02,-0.02 -0.01,-0.03 0,-0.01 0.01,-0.03 0.03,-0.03l0.09 0c0.02,0 0.05,-0.01 0.05,-0.03l0.03 -0.09c0.01,-0.02 0.02,-0.02 0.03,-0.02 0.01,0 0.03,0 0.03,0.02l0.03 0.09c0.01,0.02 0.03,0.03 0.05,0.03l0.1 0c0.01,0 0.02,0.02 0.02,0.03 0.01,0.01 0.01,0.02 -0.01,0.03l-0.07 0.06c-0.02,0.01 -0.03,0.03 -0.02,0.06l0 0z"></path> </g> </g> </svg>
