<?xml version="1.0" encoding="UTF-8"?>
<svg xmlns="http://www.w3.org/2000/svg" xmlns:xlink="http://www.w3.org/1999/xlink" xmlns:xodm="http://www.corel.com/coreldraw/odm/2003" xml:space="preserve" width="92px" height="92px" version="1.1" style="shape-rendering:geometricPrecision; text-rendering:geometricPrecision; image-rendering:optimizeQuality; fill-rule:evenodd; clip-rule:evenodd" viewBox="0 0 1.24 1.24"> <defs> <style type="text/css"> .fil2 {fill:#FEFEFE} .fil0 {fill:#EBECEC} .fil1 {fill:#EF7F1A} </style> </defs> <g id="Layer_x0020_1"> <metadata id="CorelCorpID_0Corel-Layer"></metadata> <circle class="fil0" cx="0.05" cy="0.05" r="0.05"></circle> <circle class="fil0" cx="0.34" cy="0.05" r="0.05"></circle> <circle class="fil0" cx="0.62" cy="0.05" r="0.05"></circle> <circle class="fil0" cx="0.9" cy="0.05" r="0.05"></circle> <circle class="fil0" cx="1.19" cy="0.05" r="0.05"></circle> <circle class="fil0" cx="0.05" cy="0.34" r="0.05"></circle> <circle class="fil0" cx="0.05" cy="0.62" r="0.05"></circle> <circle class="fil0" cx="0.05" cy="0.9" r="0.05"></circle> <circle class="fil0" cx="0.05" cy="1.18" r="0.05"></circle> <circle class="fil0" cx="0.34" cy="0.34" r="0.05"></circle> <circle class="fil0" cx="0.34" cy="0.62" r="0.05"></circle> <circle class="fil0" cx="0.34" cy="0.9" r="0.05"></circle> <circle class="fil0" cx="0.34" cy="1.18" r="0.05"></circle> <circle class="fil0" cx="0.62" cy="0.34" r="0.05"></circle> <circle class="fil0" cx="0.62" cy="0.62" r="0.05"></circle> <circle class="fil0" cx="0.62" cy="0.9" r="0.05"></circle> <circle class="fil0" cx="0.62" cy="1.18" r="0.05"></circle> <circle class="fil0" cx="0.9" cy="0.34" r="0.05"></circle> <circle class="fil0" cx="0.9" cy="0.62" r="0.05"></circle> <circle class="fil0" cx="0.9" cy="0.9" r="0.05"></circle> <circle class="fil0" cx="0.9" cy="1.18" r="0.05"></circle> <circle class="fil0" cx="1.19" cy="0.34" r="0.05"></circle> <circle class="fil0" cx="1.19" cy="0.62" r="0.05"></circle> <circle class="fil0" cx="1.19" cy="0.9" r="0.05"></circle> <circle class="fil0" cx="1.19" cy="1.18" r="0.05"></circle> <path class="fil1" d="M1.16 1.24l-0.46 0c-0.3,0 -0.54,-0.24 -0.54,-0.54l0 0c0,-0.3 0.24,-0.54 0.54,-0.54l0 0c0.3,0 0.54,0.24 0.54,0.54l0 0.46c0,0.04 -0.03,0.08 -0.08,0.08z"></path> <path class="fil2" d="M0.42 0.91l0.56 0 0 0.03 -0.56 0 0 -0.03zm0.58 0l0 0.03c0,0.01 -0.01,0.01 -0.01,0.01l-0.57 0c-0.01,0 -0.01,0 -0.01,-0.01l0 -0.03c0,-0.01 0,-0.01 0.02,-0.01 0,-0.05 -0.01,-0.04 0.02,-0.04 0,-0.05 0,-0.05 0.02,-0.05l0 -0.11c0,-0.01 0.01,-0.01 0.01,0l0 0.11 0.06 0 0 -0.18 -0.06 0 0 0.03c0,0.02 -0.01,0.01 -0.01,0.01l0 -0.04c-0.01,0 -0.02,0.01 -0.02,0l0 -0.04c-0.01,0 -0.02,0 -0.02,-0.01l0 -0.09c0,-0.01 0.01,-0.01 0.01,-0.02 0.03,-0.01 0.26,-0.1 0.26,-0.1l0.26 0.1c0.01,0.01 0.02,0.01 0.02,0.02l0 0.09c0,0.01 -0.02,0.01 -0.03,0.01l0 0.04c0,0 0,0 0,0 -0.01,0.01 -0.01,0 -0.01,0l0 0.11c0,0.01 -0.02,0.01 -0.02,0l0 -0.11 -0.06 0 0 0.18 0.06 0 0 -0.03c0,-0.01 0.02,-0.01 0.02,0l0 0.03c0,0 0.01,0 0.01,0.01l0 0.04c0.01,0 0.03,0 0.03,0l0 0.04c0,0 0.01,0 0.01,0 0.01,0 0.01,0.01 0.01,0.01zm-0.56 -0.04l0.52 0 0 0.03 -0.52 0 0 -0.03zm0.41 -0.04l0.08 0 0 0.03 -0.08 0 0 -0.03zm-0.14 -0.09c0.02,0 0.02,0 0.04,0.01 0.01,0.01 0.01,0.03 0.01,0.05l0 0.06 -0.05 0 0 -0.12zm-0.07 0.06c0,-0.03 0.02,-0.05 0.03,-0.06 0.01,0 0.01,0 0.02,0l0 0.12 -0.05 0 0 -0.06zm-0.17 0.03l0.09 0 0 0.03 -0.09 0 0 -0.03zm0.38 -0.24l0.08 0 0 0.03 -0.08 0 0 -0.03zm-0.38 0l0.09 0 0 0.03 -0.09 0 0 -0.03zm-0.03 -0.1l0.1 -0.04c0,0 0.01,0 0.01,0l0.15 -0.07c0,0 0.01,0.01 0.02,0.01 0.02,0.01 0.04,0.02 0.06,0.03 0.01,0 0.01,0 0.02,0 0.01,0.01 0.02,0.01 0.03,0.02l0.02 0.01c0.03,0.01 0.05,0.02 0.08,0.03 0,0 0.01,0 0.01,0 0.01,0.01 0.01,0.01 0.01,0.01 0.01,0 0.01,0 0.01,0l0 0.08 -0.24 0c-0.01,0 -0.01,0.02 0,0.02l0.11 0 0 0.04c0,0.01 0.01,0 0.01,0l0 0.18c-0.01,0 -0.01,0 -0.01,0.05l-0.05 0c0,-0.03 0,-0.07 0,-0.09 -0.01,-0.01 -0.02,-0.03 -0.03,-0.04 0,0 -0.01,0 -0.01,0 -0.03,-0.02 -0.06,-0.01 -0.09,0 0,0.01 0,0.01 -0.01,0.01 0,0.01 -0.01,0.02 -0.01,0.03 -0.01,0.02 -0.01,0.06 -0.01,0.09l-0.05 0 0 -0.04c0,-0.01 0,-0.01 -0.01,-0.01l0 -0.18c0.02,0 0.01,0 0.01,-0.04l0.11 0c0.01,0 0.01,-0.02 0,-0.02l-0.24 0 0 -0.08z"></path> <path class="fil2" d="M0.48 0.52c0,0 0.01,-0.01 0.01,-0.01l0.05 -0.02c0,0 0.01,0 0.01,0l0.03 -0.02c0,0 0.01,0 0.01,0 0,0.02 0.01,0.04 0.03,0.05 0,0.01 0.01,0.01 0.01,0.01l-0.15 0 0 -0.01zm-0.02 -0.01l0 0.03c0,0.01 0.01,0.01 0.01,0.01l0.18 0c0,0 0.01,0 0.01,-0.01 0,0 -0.01,-0.01 -0.02,-0.02 -0.02,-0.02 -0.03,-0.03 -0.03,-0.06 0,-0.01 0,-0.01 -0.01,-0.01l-0.13 0.05c0,0 -0.01,0.01 -0.01,0.01z"></path> <path class="fil2" d="M0.81 0.47c0,0 0.04,0.01 0.04,0.02l0.07 0.02c0,0 0,0.01 0,0.01l0 0.01 -0.15 0c0.01,0 0.02,-0.01 0.03,-0.02 0,-0.01 0.01,-0.03 0.01,-0.04zm-0.06 0.07c0,0.01 0,0.01 0.01,0.01l0.17 0c0,0 0.01,0 0.01,-0.01l0 -0.03c0,-0.01 -0.01,-0.01 -0.01,-0.01l-0.13 -0.05c-0.01,0 -0.01,0.01 -0.01,0.02 0,0.03 -0.01,0.04 -0.04,0.06 0,0 0,0.01 0,0.01z"></path> <path class="fil2" d="M0.65 0.47c0,-0.01 0,-0.02 0.01,-0.03 0.02,-0.02 0.04,0.01 0.04,0.01 0.01,0 0.01,-0.01 0.03,-0.01 0.01,0 0.03,0.01 0.03,0.02 0,0.01 0,0.02 -0.01,0.03 -0.01,0 -0.05,0.04 -0.05,0.04 0,0 -0.01,-0.01 -0.01,-0.01l-0.03 -0.03c-0.01,-0.01 -0.01,-0.01 -0.01,-0.02zm-0.02 -0.01c0,0.02 0.01,0.03 0.01,0.03l0.05 0.05c0.01,0.02 0.01,0.01 0.03,-0.01l0.04 -0.04c0.02,-0.02 0.02,-0.05 -0.01,-0.07 -0.01,0 -0.03,0 -0.04,0 0,0 -0.01,0.01 -0.01,0.01 -0.03,-0.02 -0.07,0 -0.07,0.03z"></path> <path class="fil2" d="M0.64 0.65l0.12 0 0 0.02 -0.12 0 0 -0.02zm-0.02 -0.01l0 0.04c0,0 0.01,0.01 0.01,0.01l0.14 0c0.01,0 0.01,-0.01 0.01,-0.01l0 -0.04c0,0 0,-0.01 -0.01,-0.01l-0.14 0c0,0 -0.01,0.01 -0.01,0.01z"></path> </g> </svg>
