<?xml version="1.0" encoding="UTF-8"?>
<svg xmlns="http://www.w3.org/2000/svg" xmlns:xlink="http://www.w3.org/1999/xlink" xmlns:xodm="http://www.corel.com/coreldraw/odm/2003" xml:space="preserve" width="92px" height="92px" version="1.1" style="shape-rendering:geometricPrecision; text-rendering:geometricPrecision; image-rendering:optimizeQuality; fill-rule:evenodd; clip-rule:evenodd" viewBox="0 0 1.08 1.08"> <defs> <style type="text/css"> .fil1 {fill:#FEFEFE;fill-rule:nonzero} .fil0 {fill:#074A7C;fill-rule:nonzero} </style> </defs> <g id="Layer_x0020_1"> <metadata id="CorelCorpID_0Corel-Layer"></metadata> <circle class="fil0" cx="0.54" cy="0.54" r="0.54"></circle> <g id="_2494042928592"> <g> <path class="fil1" d="M0.29 0.66c0.03,0.05 0.07,0.08 0.11,0.1 0,0 0.01,0 0.01,0 0,0 0,0 0,0 0.01,0 0.01,0 0.01,-0.01l0 -0.1c0,0 0,-0.01 0,-0.01 -0.04,-0.03 -0.06,-0.07 -0.06,-0.12 0,-0.01 0,-0.02 0,-0.04l0.03 0.03c0,0.01 0.01,0.01 0.01,0.01 0,0 0,0 0,0 0.01,0 0.01,-0.01 0.01,-0.01l0.01 -0.15c0,-0.01 0,-0.01 0,-0.01 -0.01,0 -0.01,0 -0.01,0l-0.15 -0.01 0 0c-0.01,0 -0.01,0 -0.01,0.01 0,0 0,0.01 0,0.01l0.03 0.03c-0.02,0.04 -0.03,0.08 -0.03,0.12 0,0.06 0.01,0.11 0.04,0.15l0 0zm-0.03 -0.15c0,-0.04 0.01,-0.08 0.03,-0.12l-0.03 -0.04 0.15 0.01 -0.01 0.15 -0.04 -0.05c-0.01,0.02 -0.01,0.04 -0.01,0.06 0,0.05 0.02,0.1 0.06,0.13l0 0.1c-0.09,-0.04 -0.16,-0.13 -0.15,-0.24l0 0z"></path> <path class="fil1" d="M0.8 0.66c0.03,-0.05 0.03,-0.1 0.03,-0.16 0,0 -0.01,0 -0.01,0 0,-0.01 0,-0.01 0,-0.01 -0.01,0 -0.01,0.01 -0.01,0.01l-0.09 0.05c0,0 0,0 0,0.01 -0.01,0.04 -0.04,0.09 -0.08,0.11 -0.01,0.01 -0.02,0.01 -0.03,0.02l0.01 -0.04c0,0 0,-0.01 0,-0.01 0,0 0,-0.01 -0.01,-0.01l0 0 0 0c0,0 0,0 -0.01,0l-0.13 0.08c0,0 0,0 0,0 0,0.01 0,0.01 0,0.01l0.08 0.13c0,0 0,0.01 0.01,0.01 0,0 0,0 0,0 0,0 0.01,-0.01 0.01,-0.01l0.01 -0.05c0.04,0 0.08,-0.01 0.12,-0.03 0.04,-0.03 0.08,-0.07 0.1,-0.11l0 0zm-0.11 0.1c-0.04,0.02 -0.08,0.03 -0.12,0.03l-0.01 0.05 -0.08 -0.12 0.13 -0.08 -0.02 0.06c0.02,0 0.04,-0.01 0.06,-0.02 0.04,-0.03 0.07,-0.07 0.08,-0.12l0.09 -0.05c0.01,0.09 -0.04,0.2 -0.13,0.25l0 0z"></path> <path class="fil1" d="M0.61 0.39c-0.01,0.01 0,0.01 0,0.01l0.13 0.08c0,0 0,0 0.01,0 0,0 0,0 0,0 0,0 0.01,-0.01 0.01,-0.01l0.07 -0.13c0,0 0,-0.01 0,-0.01 -0.01,-0.01 -0.01,-0.01 -0.01,-0.01 0,0 0,0 -0.01,0l-0.04 0.02c-0.02,-0.04 -0.05,-0.07 -0.09,-0.09 -0.04,-0.02 -0.08,-0.03 -0.13,-0.03l0 0c-0.06,0 -0.12,0.02 -0.16,0.06 -0.01,0 -0.01,0 -0.01,0.01 0,0 0,0.01 0.01,0.01l0.09 0.05c0,0 0,0 0,0 0,0 0.01,0 0.01,0 0.02,-0.01 0.04,-0.02 0.06,-0.02 0.03,0 0.05,0.01 0.08,0.02 0.01,0.01 0.01,0.01 0.02,0.02l-0.04 0.01c0,0 0,0.01 0,0.01l0 0zm0.06 -0.01c-0.01,-0.02 -0.02,-0.03 -0.04,-0.04 -0.02,-0.01 -0.05,-0.02 -0.08,-0.02 -0.02,0 -0.05,0.01 -0.07,0.02l-0.09 -0.05c0.05,-0.04 0.11,-0.06 0.16,-0.06 0.04,0 0.09,0.01 0.12,0.03 0.04,0.02 0.07,0.05 0.1,0.09l0.05 -0.02 -0.07 0.14 -0.13 -0.08 0.05 -0.01z"></path> <path class="fil1" d="M0.34 0.66c0,0 0,-0.01 0,-0.01 -0.04,-0.03 -0.05,-0.08 -0.05,-0.12 0,-0.02 0,-0.04 0.01,-0.06 0,0 0,-0.01 -0.01,-0.01 0,0 0,0 0,0 -0.01,0.02 -0.02,0.05 -0.02,0.07 0,0.05 0.02,0.1 0.06,0.13 0,0 0.01,0 0.01,0l0 0z"></path> <path class="fil1" d="M0.77 0.62c0,-0.01 0,0 0,0l0 0c-0.01,0.03 -0.03,0.06 -0.05,0.08 -0.03,0.02 -0.06,0.04 -0.09,0.04 -0.01,0 -0.01,0.01 -0.01,0.01 0,0 0.01,0 0.01,0 0.03,0 0.07,-0.02 0.09,-0.04 0.03,-0.02 0.05,-0.05 0.06,-0.09 0,0 0,0 -0.01,0l0 0z"></path> <path class="fil1" d="M0.66 0.27c-0.02,-0.01 -0.05,-0.02 -0.08,-0.02 -0.02,0 -0.03,0 -0.04,0.01 -0.01,0 -0.01,0 -0.01,0 0,0.01 0.01,0.01 0.01,0.01 0.01,-0.01 0.03,-0.01 0.04,-0.01 0.02,0 0.05,0.01 0.07,0.02 0.03,0.01 0.05,0.03 0.06,0.06 0,0 0.01,0 0.01,0 0,0 0,-0.01 0,-0.01 -0.01,-0.02 -0.04,-0.04 -0.06,-0.06l0 0z"></path> </g> </g> </g> </svg>
