<?xml version="1.0" encoding="UTF-8"?>
<svg xmlns="http://www.w3.org/2000/svg" xmlns:xlink="http://www.w3.org/1999/xlink" xmlns:xodm="http://www.corel.com/coreldraw/odm/2003" xml:space="preserve" width="92px" height="92px" version="1.1" style="shape-rendering:geometricPrecision; text-rendering:geometricPrecision; image-rendering:optimizeQuality; fill-rule:evenodd; clip-rule:evenodd" viewBox="0 0 1.36 1.35"> <defs> <style type="text/css"> .fil0 {fill:#EBECEC} .fil1 {fill:#EF7F1A} .fil2 {fill:#FEFEFE;fill-rule:nonzero} </style> </defs> <g id="Layer_x0020_1"> <metadata id="CorelCorpID_0Corel-Layer"></metadata> <circle class="fil0" cx="0.06" cy="0.06" r="0.06"></circle> <circle class="fil0" cx="0.37" cy="0.06" r="0.06"></circle> <circle class="fil0" cx="0.68" cy="0.06" r="0.06"></circle> <circle class="fil0" cx="0.99" cy="0.06" r="0.06"></circle> <circle class="fil0" cx="1.29" cy="0.06" r="0.06"></circle> <circle class="fil0" cx="0.06" cy="0.37" r="0.06"></circle> <circle class="fil0" cx="0.06" cy="0.67" r="0.06"></circle> <circle class="fil0" cx="0.06" cy="0.98" r="0.06"></circle> <circle class="fil0" cx="0.06" cy="1.29" r="0.06"></circle> <circle class="fil0" cx="0.37" cy="0.37" r="0.06"></circle> <circle class="fil0" cx="0.37" cy="0.67" r="0.06"></circle> <circle class="fil0" cx="0.37" cy="0.98" r="0.06"></circle> <circle class="fil0" cx="0.37" cy="1.29" r="0.06"></circle> <circle class="fil0" cx="0.68" cy="0.37" r="0.06"></circle> <circle class="fil0" cx="0.68" cy="0.67" r="0.06"></circle> <circle class="fil0" cx="0.68" cy="0.98" r="0.06"></circle> <circle class="fil0" cx="0.68" cy="1.29" r="0.06"></circle> <circle class="fil0" cx="0.99" cy="0.37" r="0.06"></circle> <circle class="fil0" cx="0.99" cy="0.67" r="0.06"></circle> <circle class="fil0" cx="0.99" cy="0.98" r="0.06"></circle> <circle class="fil0" cx="0.99" cy="1.29" r="0.06"></circle> <circle class="fil0" cx="1.29" cy="0.37" r="0.06"></circle> <circle class="fil0" cx="1.29" cy="0.67" r="0.06"></circle> <circle class="fil0" cx="1.29" cy="0.98" r="0.06"></circle> <circle class="fil0" cx="1.29" cy="1.29" r="0.06"></circle> <path class="fil1" d="M1.27 1.35l-0.51 0c-0.32,0 -0.58,-0.26 -0.58,-0.58l0 0c0,-0.33 0.26,-0.59 0.58,-0.59l0.01 0c0.32,0 0.59,0.26 0.59,0.59l0 0.49c0,0.05 -0.04,0.09 -0.09,0.09z"></path> <path class="fil2" d="M0.91 0.66l-0.03 0c-0.01,-0.01 -0.01,-0.02 -0.01,-0.02l0.02 -0.03c0,0 0.01,0 0.01,-0.01 0,0 -0.01,0 -0.01,-0.01l-0.03 -0.03c0,0 -0.01,0 -0.02,0l-0.02 0.03c-0.01,-0.01 -0.01,-0.01 -0.02,-0.01l0 -0.03c0,-0.01 -0.01,-0.02 -0.01,-0.02l-0.04 0c-0.01,0 -0.02,0.01 -0.02,0.02l0 0.03c-0.01,0 -0.01,0 -0.02,0.01l-0.02 -0.03c-0.01,0 -0.02,0 -0.02,0l-0.03 0.03c0,0.01 0,0.01 0,0.01 0,0.01 0,0.01 0,0.01l0.02 0.03c0,0 0,0.01 0,0.02l-0.04 0c-0.01,0 -0.01,0 -0.01,0.01l0 0.04c0,0.01 0,0.02 0.01,0.02l0.04 0c0,0 0,0.01 0,0.01l-0.02 0.03c-0.01,0 -0.01,0.01 0,0.02l0.03 0.03c0,0 0.01,0 0.02,0l0.02 -0.03c0.01,0.01 0.01,0.01 0.02,0.01l0 0.03c0,0.01 0.01,0.02 0.02,0.02l0.04 0c0,0 0.01,-0.01 0.01,-0.02l0 -0.03c0.01,0 0.01,0 0.02,-0.01l0.02 0.03c0.01,0 0.02,0 0.02,0l0.03 -0.03c0,0 0.01,-0.01 0.01,-0.01 0,-0.01 -0.01,-0.01 -0.01,-0.01l-0.02 -0.03c0,0 0,-0.01 0.01,-0.01l0.03 0c0.01,0 0.01,-0.01 0.01,-0.02l0 -0.04c0,-0.01 0,-0.01 -0.01,-0.01zm-0.01 0.04l-0.03 0c-0.01,0 -0.01,0.01 -0.01,0.01 0,0.01 -0.01,0.02 -0.01,0.03 -0.01,0 -0.01,0.01 0,0.01l0.02 0.03 -0.02 0.02 -0.02 -0.03c0,0 -0.01,0 -0.01,0 -0.01,0.01 -0.02,0.01 -0.03,0.01 -0.01,0 -0.01,0.01 -0.01,0.01l0 0.04 -0.03 0 0 -0.04c0,0 0,-0.01 -0.01,-0.01 -0.01,0 -0.01,0 -0.02,-0.01 -0.01,0 -0.01,0 -0.02,0l-0.02 0.03 -0.02 -0.02 0.02 -0.03c0.01,0 0.01,-0.01 0.01,-0.01 -0.01,-0.01 -0.01,-0.02 -0.02,-0.03 0,0 0,-0.01 -0.01,-0.01l-0.03 0 0 -0.02 0.03 0c0.01,0 0.01,-0.01 0.01,-0.01 0.01,-0.01 0.01,-0.02 0.02,-0.03 0,0 0,-0.01 -0.01,-0.01l-0.02 -0.03 0.02 -0.02 0.02 0.03c0.01,0 0.01,0 0.02,0 0.01,0 0.01,-0.01 0.02,-0.01 0.01,0 0.01,-0.01 0.01,-0.01l0 -0.04 0.03 0 0 0.04c0,0 0,0.01 0.01,0.01 0.01,0 0.02,0.01 0.03,0.01 0,0 0.01,0 0.01,0l0.02 -0.03 0.02 0.02 -0.02 0.03c-0.01,0 -0.01,0.01 0,0.01 0,0.01 0.01,0.02 0.01,0.03 0,0 0,0.01 0.01,0.01l0.03 0 0 0.02z"></path> <path class="fil2" d="M0.77 0.63c-0.04,0 -0.06,0.03 -0.06,0.06 0,0.03 0.02,0.06 0.06,0.06 0.03,0 0.05,-0.03 0.05,-0.06 0,-0.03 -0.02,-0.06 -0.05,-0.06zm0 0.1c-0.02,0 -0.04,-0.02 -0.04,-0.04 0,-0.02 0.02,-0.04 0.04,-0.04 0.02,0 0.03,0.02 0.03,0.04 0,0.02 -0.01,0.04 -0.03,0.04z"></path> <path class="fil2" d="M0.52 0.68l-0.04 0c-0.01,0 -0.01,0 -0.01,0.01 0,0.01 0,0.01 0.01,0.01l0.04 0c0,0 0.01,0 0.01,-0.01 0,-0.01 -0.01,-0.01 -0.01,-0.01z"></path> <path class="fil2" d="M1.05 0.68l-0.03 0c-0.01,0 -0.01,0 -0.01,0.01 0,0.01 0,0.01 0.01,0.01l0.03 0c0.01,0 0.01,0 0.01,-0.01 0,-0.01 0,-0.01 -0.01,-0.01z"></path> <path class="fil2" d="M0.6 0.86c-0.01,0 -0.01,0 -0.02,0l-0.02 0.03c-0.01,0 -0.01,0.01 0,0.01 0,0.01 0.01,0.01 0.01,0l0.03 -0.02c0,-0.01 0,-0.02 0,-0.02z"></path> <path class="fil2" d="M0.98 0.48c-0.01,0 -0.01,0 -0.02,0l-0.02 0.03c-0.01,0 -0.01,0.01 0,0.01 0,0.01 0.01,0.01 0.01,0l0.03 -0.02c0,-0.01 0,-0.02 0,-0.02z"></path> <path class="fil2" d="M0.77 0.39c-0.01,0 -0.01,0.01 -0.01,0.01l0 0.04c0,0.01 0,0.01 0.01,0.01 0,0 0.01,0 0.01,-0.01l0 -0.04c0,0 -0.01,-0.01 -0.01,-0.01z"></path> <path class="fil2" d="M0.98 0.89l-0.03 -0.03c0,0 -0.01,0 -0.01,0 -0.01,0 -0.01,0.01 0,0.02l0.02 0.02c0.01,0.01 0.01,0.01 0.02,0 0,0 0,-0.01 0,-0.01z"></path> <path class="fil2" d="M0.6 0.51l-0.03 -0.03c0,0 -0.01,0 -0.01,0 -0.01,0 -0.01,0.01 0,0.02l0.02 0.02c0.01,0.01 0.01,0.01 0.02,0 0,0 0,-0.01 0,-0.01z"></path> <path class="fil2" d="M0.98 0.66c-0.01,-0.1 -0.09,-0.18 -0.19,-0.19 0,0 -0.01,0.01 -0.01,0.01 0,0.01 0,0.01 0.01,0.01 0.09,0.02 0.16,0.09 0.17,0.18 0,0 0.01,0.01 0.01,0.01 0,0 0,0 0,0 0.01,0 0.01,-0.01 0.01,-0.02z"></path> <path class="fil2" d="M0.97 0.71c0,-0.01 -0.01,0 -0.01,0 -0.01,0.06 -0.04,0.12 -0.09,0.15 -0.02,0.01 -0.03,0.03 -0.03,0.06l0 0.04 -0.14 0 0 -0.04c0,-0.03 -0.02,-0.05 -0.04,-0.06 -0.06,-0.04 -0.09,-0.1 -0.09,-0.17 0,-0.1 0.07,-0.18 0.17,-0.2 0.01,0 0.01,0 0.01,-0.01 0,0 0,-0.01 -0.01,-0.01 -0.11,0.02 -0.19,0.11 -0.19,0.22 0,0.04 0.01,0.08 0.03,0.11 0.01,0.03 0.04,0.06 0.07,0.08 0.02,0 0.02,0.02 0.02,0.04l0 0.05c-0.01,0 -0.02,0.01 -0.02,0.02l0 0.02c0,0 0.01,0.01 0.01,0.02 0,0 -0.01,0.01 -0.01,0.01l0 0.02c0,0.01 0.02,0.03 0.03,0.03l0.04 0 0 0.02c0,0.02 0.01,0.03 0.02,0.03l0.05 0c0.01,0 0.02,-0.01 0.02,-0.03l0 -0.02 0.04 0c0.01,0 0.03,-0.02 0.03,-0.03l0 -0.02c0,0 -0.01,-0.01 -0.01,-0.01 0,-0.01 0.01,-0.02 0.01,-0.02l0 -0.02c0,-0.01 -0.01,-0.02 -0.02,-0.02l0 -0.05c0,-0.02 0.01,-0.04 0.02,-0.04 0.06,-0.04 0.09,-0.1 0.1,-0.16 0,-0.01 0,-0.01 -0.01,-0.01zm-0.18 0.4c0,0 0,0.01 0,0.01l-0.05 0c0,0 0,-0.01 0,-0.01l0 -0.02 0.05 0 0 0.02zm0.07 -0.05c0,0 -0.01,0 -0.01,0 -0.02,0 -0.15,0 -0.17,0 0,0 0,0 0,0l0 -0.02c0,0 0,0 0,0l0.17 0c0,0 0.01,0 0.01,0l0 0.02zm0 -0.05c0,0 -0.01,0 -0.01,0l-0.17 0c0,0 0,0 0,0l0 -0.02c0,0 0,0 0,0l0.17 0c0,0 0.01,0 0.01,0l0 0.02z"></path> </g> </svg>
