<?xml version="1.0" encoding="UTF-8"?>
<svg xmlns="http://www.w3.org/2000/svg" xmlns:xlink="http://www.w3.org/1999/xlink" xmlns:xodm="http://www.corel.com/coreldraw/odm/2003" xml:space="preserve" width="92px" height="92px" version="1.1" style="shape-rendering:geometricPrecision; text-rendering:geometricPrecision; image-rendering:optimizeQuality; fill-rule:evenodd; clip-rule:evenodd" viewBox="0 0 1.24 1.24"> <defs> <style type="text/css"> .fil0 {fill:#074A7C} .fil1 {fill:#FEFEFE;fill-rule:nonzero} </style> </defs> <g id="Layer_x0020_1"> <metadata id="CorelCorpID_0Corel-Layer"></metadata> <circle class="fil0" cx="0.62" cy="0.62" r="0.62"></circle> <g id="_2495171461696"> <path class="fil1" d="M0.87 0.45l-0.07 -0.06c0,-0.01 -0.01,-0.01 -0.02,0 0,0 -0.01,0 -0.01,0.01l0 0.02c-0.04,0 -0.07,0.01 -0.11,0.02l0 -0.06 0.02 0c0.01,0 0.01,-0.01 0.02,-0.01 0,-0.01 0,-0.01 -0.01,-0.02l-0.06 -0.07c0,-0.01 0,-0.01 -0.01,-0.01 0,0 -0.01,0 -0.01,0.01l-0.06 0.07c-0.01,0.01 -0.01,0.01 -0.01,0.02 0.01,0 0.01,0.01 0.02,0.01l0.02 0 0 0.06c-0.04,-0.01 -0.07,-0.02 -0.11,-0.02l0 -0.02c0,-0.01 -0.01,-0.01 -0.01,-0.01 -0.01,-0.01 -0.01,-0.01 -0.02,0l-0.07 0.06c-0.01,0 -0.01,0.01 -0.01,0.01 0,0.01 0,0.01 0.01,0.01l0.07 0.07c0.01,0 0.01,0 0.02,0 0,0 0.01,-0.01 0.01,-0.02l0 -0.01c0.03,0 0.05,0 0.07,0.01 -0.05,0.06 -0.08,0.13 -0.1,0.24 0,0 0,0 0,0.01 0,0 0,0 0.01,0l0.06 0c0.01,0 0.01,0 0.01,-0.01 0.03,-0.09 0.06,-0.15 0.1,-0.19 0.04,0.04 0.08,0.1 0.1,0.19 0,0.01 0,0.01 0.01,0.01l0.06 0c0.01,0 0.01,0 0.01,0 0,-0.01 0.01,-0.01 0,-0.01 -0.02,-0.11 -0.05,-0.18 -0.1,-0.24 0.02,-0.01 0.05,-0.01 0.07,-0.01l0 0.01c0,0.01 0.01,0.02 0.01,0.02 0.01,0 0.01,0 0.01,0 0,0 0.01,0 0.01,0l0.07 -0.07c0.01,0 0.01,0 0.01,-0.01 0,0 0,-0.01 -0.01,-0.01l0 0zm-0.28 -0.1l-0.02 0 0.05 -0.05 0.05 0.05 -0.02 0c0,0 -0.01,0.01 -0.01,0.01l0 0.09c-0.01,0 -0.01,0.01 -0.02,0.01 -0.01,0 -0.01,-0.01 -0.02,-0.01l0 -0.09c0,0 -0.01,-0.01 -0.01,-0.01l0 0zm-0.21 0.11c0,0 0,0 0,0l0 0zm0.12 0.29l-0.04 0c0.02,-0.1 0.06,-0.17 0.11,-0.22 0.01,0.01 0.02,0.01 0.03,0.02 -0.04,0.04 -0.07,0.11 -0.1,0.2zm0.24 0c-0.03,-0.1 -0.07,-0.17 -0.12,-0.22 -0.04,-0.03 -0.1,-0.04 -0.16,-0.05 -0.01,0 -0.01,0.01 -0.01,0.01 0,0 -0.01,0 -0.01,0.01l0 0.01 -0.05 -0.05 0.05 -0.04 0 0.01c0,0.01 0.01,0.01 0.01,0.01 0.08,0.01 0.14,0.02 0.19,0.06 0.07,0.05 0.11,0.13 0.14,0.25l-0.04 0 0 0zm0.06 -0.24l0 -0.01c0,-0.01 0,-0.01 -0.01,-0.01 0,0 0,-0.01 0,-0.01 -0.05,0.01 -0.08,0.01 -0.11,0.02 -0.01,0 -0.02,-0.01 -0.02,-0.02 -0.01,0 -0.01,0 -0.02,-0.01 0.04,-0.02 0.09,-0.03 0.15,-0.03 0,0 0.01,0 0.01,-0.01l0 -0.01 0.05 0.04 -0.05 0.05zm-0.13 0.32c0.02,-0.01 0.03,-0.03 0.03,-0.06 0,-0.05 -0.04,-0.08 -0.08,-0.08 -0.04,0 -0.08,0.03 -0.08,0.08 0,0.03 0.01,0.05 0.03,0.06 -0.05,0.02 -0.09,0.07 -0.1,0.13 0,0 0.01,0 0.01,0.01 0,0 0,0 0.01,0l0.27 0c0,0 0,0 0,0 0.01,-0.01 0.01,-0.01 0.01,-0.01 -0.01,-0.06 -0.05,-0.11 -0.1,-0.13zm-0.11 -0.06c0,-0.03 0.03,-0.06 0.06,-0.06 0.03,0 0.06,0.03 0.06,0.06 0,0.03 -0.03,0.06 -0.06,0.06 -0.03,0 -0.06,-0.03 -0.06,-0.06zm-0.06 0.18c0.01,-0.06 0.06,-0.1 0.12,-0.1 0.06,0 0.11,0.04 0.12,0.1l-0.24 0z"></path> </g> </g> </svg>
