<?xml version="1.0" encoding="UTF-8"?>
<svg xmlns="http://www.w3.org/2000/svg" xmlns:xlink="http://www.w3.org/1999/xlink" xmlns:xodm="http://www.corel.com/coreldraw/odm/2003" xml:space="preserve" width="92px" height="92px" version="1.1" style="shape-rendering:geometricPrecision; text-rendering:geometricPrecision; image-rendering:optimizeQuality; fill-rule:evenodd; clip-rule:evenodd" viewBox="0 0 1.46 1.46"> <defs> <style type="text/css"> .fil1 {fill:#FEFEFE;fill-rule:nonzero} .fil0 {fill:#074A7C;fill-rule:nonzero} </style> </defs> <g id="Layer_x0020_1"> <metadata id="CorelCorpID_0Corel-Layer"></metadata> <circle class="fil0" cx="0.73" cy="0.73" r="0.73"></circle> <g id="_2495172618432"> <path class="fil1" d="M1.13 0.84c-0.01,-0.01 -0.01,-0.01 -0.01,-0.01 -0.01,-0.01 -0.01,-0.01 -0.02,-0.02 0,0 0,-0.01 0,-0.02 0,0 0,0 -0.01,-0.01 0,-0.02 -0.02,-0.03 -0.04,-0.04 0,0 -0.01,0 -0.01,0 -0.01,0 -0.02,0 -0.02,0 -0.01,0 -0.01,0 -0.02,-0.01 0,0 -0.01,0 -0.01,-0.01 -0.02,-0.01 -0.04,-0.01 -0.06,0 0,0.01 0,0.01 0,0.01 -0.01,0.01 -0.02,0.01 -0.02,0.01 0,0 -0.01,0 -0.01,0 -0.04,-0.04 -0.1,-0.06 -0.15,-0.08 0.06,-0.03 0.1,-0.09 0.1,-0.16 0,-0.1 -0.08,-0.18 -0.18,-0.18 -0.1,0 -0.18,0.08 -0.18,0.18 0,0.07 0.04,0.13 0.1,0.16 -0.06,0.02 -0.11,0.04 -0.15,0.08 -0.07,0.06 -0.11,0.14 -0.12,0.22 0,0.01 0,0.01 0.01,0.01 0,0.01 0,0.01 0.01,0.01l0.33 0c0,0 0,0 0,0 0,0 0,0 0,0l0.13 0c0.01,0.01 0.02,0.02 0.03,0.02 0,0.01 0.01,0.01 0.01,0.01 0,0 0,0 0,0l-0.03 0.08c-0.01,0.01 -0.01,0.01 0,0.02 0,0 0.01,0 0.01,0l0.04 0 0.02 0.03c0,0 0.01,0.01 0.01,0.01 0,0 0,0 0.01,0 0,0 0.01,-0.01 0.01,-0.01l0.04 -0.08c0,0 0.01,0 0.01,0 0.01,0 0.01,0 0.02,0l0.04 0.08c0,0 0,0.01 0.01,0.01 0,0 0,0 0,0 0.01,0 0.01,-0.01 0.02,-0.01l0.01 -0.03 0.04 0c0.01,0 0.01,0 0.02,0 0,-0.01 0,-0.01 0,-0.02l-0.04 -0.08c0,0 0.01,0 0.01,0 0,0 0,0 0.01,-0.01 0.02,0 0.03,-0.02 0.02,-0.05 0,0 0,0 0,-0.01 0,-0.01 0,-0.01 0,-0.02 0,0 0.01,-0.01 0.01,-0.02 0,0 0,0 0.01,-0.01 0.01,-0.02 0,-0.04 -0.01,-0.05l0 0zm-0.34 0.05c0,0.01 0,0.01 0,0.01 0.01,0.01 0.01,0.02 0.01,0.02 0,0.01 0,0.01 0,0.02 0,0.01 0,0.01 0,0.01l-0.1 0 0.03 -0.04c0.01,0 0.01,0 0.01,-0.01l-0.02 -0.08 0 0c0,0.01 0.01,0.01 0.01,0.01 0,0 0,0 0,0 0.01,0 0.01,0 0.01,-0.01l0.07 -0.11c0.02,0.01 0.04,0.02 0.05,0.04 -0.01,0 -0.03,0.01 -0.03,0.03 0,0.01 0,0.01 0,0.01 0,0.01 -0.01,0.02 -0.01,0.02 0,0.01 0,0.01 -0.01,0.02 -0.01,0 -0.01,0 -0.01,0.01 -0.02,0.01 -0.02,0.03 -0.01,0.05l0 0zm-0.18 -0.1l-0.05 -0.09c0.01,0 0.02,-0.01 0.03,-0.01l0.06 0.05 -0.04 0.05zm0.05 -0.01l0.01 -0.02 0.01 0.02 0.03 0.12 -0.04 0.05 -0.04 -0.05 0.03 -0.12zm0.03 -0.04l0.06 -0.05c0.01,0 0.02,0.01 0.03,0.01l-0.05 0.09 -0.04 -0.05zm-0.18 -0.24c0,-0.09 0.07,-0.16 0.16,-0.16 0.08,0 0.15,0.07 0.15,0.16 0,0.08 -0.07,0.15 -0.15,0.15 0,0 0,0 0,0 0,0 0,0 0,0 -0.09,0 -0.16,-0.07 -0.16,-0.15zm0.16 0.18l0 0c0.02,0 0.03,0 0.05,0l-0.05 0.04 -0.05 -0.04c0.02,0 0.03,0 0.05,0 0,0 0,0 0,0l0 0zm-0.14 0.03l0.06 0.11c0.01,0.01 0.01,0.01 0.01,0.01 0,0 0,0 0.01,0 0,0 0,0 0.01,-0.01l0 0 -0.02 0.08c0,0.01 0,0.01 0,0.01l0.04 0.04 -0.29 0c0.02,-0.11 0.09,-0.19 0.18,-0.24l0 0zm0.36 0.4l-0.01 -0.02c0,-0.01 -0.01,-0.01 -0.01,-0.01l-0.03 0 0.02 -0.05c0.01,0 0.01,0 0.01,0.01 0,0 0.01,0 0.01,0 0.01,0.02 0.02,0.02 0.03,0.03l-0.02 0.04zm0.17 -0.03c-0.01,0 -0.01,0 -0.01,0.01l-0.02 0.02 -0.02 -0.04c0.02,-0.01 0.03,-0.01 0.04,-0.03 0,0 0,0 0,0 0.01,-0.01 0.01,-0.01 0.01,-0.01l0.03 0.05 -0.03 0zm0.05 -0.2c0,0 0,0.01 0,0.01 -0.02,0.03 -0.02,0.03 -0.01,0.06 0,0 0,0 0,0.01 0,0.01 -0.01,0.02 -0.01,0.02 -0.01,0 -0.01,0 -0.01,0 -0.03,0.01 -0.03,0.02 -0.05,0.04 0,0 0,0.01 0,0.01 -0.01,0.01 -0.02,0.01 -0.03,0.01 0,0 -0.01,0 -0.01,0 -0.01,-0.01 -0.02,-0.01 -0.03,-0.01 -0.01,0 -0.01,0 -0.03,0.01 0,0 0,0 -0.01,0 -0.01,0 -0.02,0 -0.02,-0.01 0,0 0,-0.01 -0.01,-0.01 -0.01,-0.02 -0.01,-0.03 -0.04,-0.04 0,0 -0.01,0 -0.01,0 -0.01,0 -0.01,-0.01 -0.01,-0.02 0,-0.01 0,-0.01 0,-0.01 0,-0.03 0,-0.03 -0.01,-0.06 0,0 0,-0.01 -0.01,-0.01 0,-0.01 0,-0.02 0.01,-0.02 0,-0.01 0,-0.01 0.01,-0.01 0.02,-0.02 0.02,-0.02 0.02,-0.05 0.01,-0.01 0.01,-0.01 0.01,-0.01 0,-0.01 0.01,-0.02 0.02,-0.02 0,0 0,0 0.01,0 0.03,0 0.03,0 0.05,-0.02 0,0 0.01,0 0.01,-0.01 0.01,0 0.02,0 0.03,0 0,0.01 0,0.01 0,0.01 0.03,0.02 0.03,0.02 0.06,0.02 0,0 0,0 0.01,0 0.01,0 0.02,0.01 0.02,0.02 0,0 0,0 0,0.01 0.01,0.03 0.01,0.03 0.03,0.05 0,0 0,0 0.01,0.01 0,0 0.01,0.01 0,0.02zm-0.15 -0.09c-0.05,0 -0.1,0.04 -0.1,0.1 0,0.06 0.05,0.1 0.1,0.1 0.06,0 0.1,-0.04 0.1,-0.1 0,-0.06 -0.04,-0.1 -0.1,-0.1l0 0zm0 0.17c-0.04,0 -0.07,-0.03 -0.07,-0.07 0,-0.04 0.03,-0.07 0.07,-0.07 0.04,0 0.08,0.03 0.08,0.07 0,0.04 -0.04,0.07 -0.08,0.07z"></path> </g> </g> </svg>
